<svg width="160" height="30" viewBox="0 0 160 30" fill="none" xmlns="http://www.w3.org/2000/svg">
<path d="M5.64313 23.6076H0V2.03687H5.64313V23.6076V23.6076Z" fill="#F9B943"/>
<path d="M25.6112 6.8786H19.6008V23.6076H13.9576V6.8786H7.9472L9.24947 2.03687H24.3089L25.6112 6.8786Z" fill="#F9B943"/>
<path d="M34.5267 16.462H26.0119V12.2881H34.5267V16.462Z" fill="#F9B943"/>
<path d="M55.2285 2.03687C57.6994 2.03687 59.5471 2.64973 60.7714 3.87617C61.7947 4.90226 62.3074 6.26226 62.3074 7.95687C62.3074 9.85182 61.5833 11.6466 60.137 13.3412C58.3784 15.3927 55.6174 17.2209 51.856 18.8257V23.6083H46.2128V18.8257C42.4507 17.2209 39.7015 15.4038 37.9652 13.3746C36.496 11.6577 35.7614 9.85182 35.7614 7.95687C35.7614 6.28452 36.2734 4.93634 37.2974 3.91026C38.521 2.66156 40.3694 2.03756 42.8403 2.03756H55.2285V2.03687ZM51.856 7.54643V13.223C53.0135 12.6442 53.993 12.0097 54.7944 11.3196C55.952 10.3179 56.5307 9.38295 56.5307 8.51478C56.5307 7.82469 56.2191 7.35721 55.5958 7.11234C55.1951 6.95652 54.5822 6.8786 53.7593 6.8786H44.3095C43.4629 6.8786 42.8619 6.94539 42.5064 7.07895C41.8608 7.32382 41.538 7.80243 41.538 8.51478C41.538 9.53878 42.3728 10.663 44.0424 11.8873C44.7325 12.4 45.456 12.8445 46.2128 13.223V7.54643H51.856V7.54643Z" fill="#F9B943"/>
<path d="M77.968 23.6078C77.6341 23.6293 77.1499 23.6523 76.5155 23.6746C75.881 23.6968 75.4303 23.7086 75.1631 23.7086C74.3165 23.7086 73.5604 23.6746 72.8925 23.6078C69.9318 23.3177 67.6445 22.2916 66.0306 20.5295C64.416 18.7667 63.6097 16.5142 63.6097 13.7699C63.6097 11.9855 64.0772 10.5692 65.0122 9.52012C66.1252 8.27142 67.8616 7.64673 70.2212 7.64673H77.968V23.6078ZM72.8925 11.9542H71.2564C70.5885 11.9542 70.0765 12.0439 69.7204 12.222C69.097 12.5351 68.7854 13.173 68.7854 14.1344C68.7854 15.3866 69.1694 16.5219 69.9374 17.5396C70.7054 18.5573 71.6904 19.1438 72.8925 19.3003V11.9542V11.9542Z" fill="#F9B943"/>
<path d="M84.8467 7.71339C85.1354 7.62504 85.742 7.536 86.6658 7.44626C87.5896 7.35791 88.2748 7.3127 88.7194 7.3127C90.7228 7.3127 92.3089 7.81913 93.4783 8.832C94.647 9.84557 95.2314 11.353 95.2314 13.3565C95.2314 16.0946 94.5628 18.5099 93.2272 20.6024C91.7587 22.9176 89.8887 24.0751 87.6181 24.0751C85.3475 24.0751 83.4776 22.9176 82.0091 20.6024C80.6734 18.5099 80.0056 16.0946 80.0056 13.3565C80.0056 9.95061 80.1392 7.52417 80.4063 6.07722C80.7847 3.98539 81.5527 2.47096 82.711 1.536C83.9569 0.512 85.8832 0 88.4877 0H92.8954L94.1976 4.57461H89.79C87.742 4.57461 86.384 4.85287 85.7169 5.40939C85.1354 5.89913 84.8467 6.66713 84.8467 7.71339ZM90.0557 13.7906C90.0557 12.3437 89.2425 11.6202 87.6181 11.6202C85.9708 11.6202 85.1472 12.3437 85.1472 13.7906C85.1472 15.3489 85.4247 16.6901 85.9813 17.8143C86.5385 18.9384 87.0832 19.5005 87.6181 19.5005C88.1531 19.5005 88.6922 18.9384 89.2376 17.8143C89.783 16.6901 90.0557 15.3489 90.0557 13.7906Z" fill="#F9B943"/>
<path d="M105.015 7.64673C107.352 7.64673 109.088 8.27003 110.223 9.51664C111.181 10.5629 111.659 11.9765 111.659 13.7573C111.659 16.1399 110.902 18.2318 109.388 20.0349C107.718 22.0168 105.381 23.3184 102.376 23.9424V29.0846H97.3003V7.64673H105.015ZM102.376 19.3003C103.579 19.1438 104.564 18.5566 105.332 17.5396C106.099 16.5226 106.484 15.3866 106.484 14.1344C106.484 13.1953 106.171 12.558 105.549 12.222C105.215 12.0439 104.692 11.9542 103.979 11.9542H102.376V19.3003H102.376Z" fill="#F9B943"/>
<path d="M127.521 23.6078H119.439C117.147 23.6078 115.467 22.9504 114.397 21.6335C113.508 20.5177 113.062 18.9566 113.062 16.949C113.062 15.8784 113.229 14.7076 113.563 13.4359C113.985 11.8074 114.72 9.87838 115.767 7.64742H120.976C119.929 10.4606 119.384 11.934 119.339 12.0676C118.716 13.966 118.404 15.4833 118.404 16.6213C118.404 17.7831 118.727 18.542 119.373 18.8989C119.84 19.1674 120.686 19.301 121.91 19.301H122.478V7.64673H127.52V23.6078H127.521Z" fill="#F9B943"/>
<path d="M134.733 23.6078H129.656V7.64673H134.733V23.6078ZM140.142 14.6401L144.149 23.6078H138.573L134.733 14.8078L137.937 7.64742H143.447L140.142 14.6401Z" fill="#F9B943"/>
<path d="M159.575 23.6078C159.242 23.6293 158.757 23.6523 158.122 23.6746C157.488 23.6968 157.038 23.7086 156.771 23.7086C155.924 23.7086 155.167 23.6746 154.5 23.6078C151.539 23.3177 149.251 22.2916 147.638 20.5295C146.024 18.7667 145.218 16.5142 145.218 13.7699C145.218 11.9855 145.686 10.5692 146.621 9.52012C147.734 8.27142 149.47 7.64673 151.83 7.64673H159.576V23.6078H159.575ZM154.5 11.9542H152.865C152.196 11.9542 151.684 12.0439 151.328 12.222C150.705 12.5351 150.393 13.173 150.393 14.1344C150.393 15.3866 150.777 16.5219 151.545 17.5396C152.313 18.5566 153.298 19.1438 154.5 19.3003V11.9542Z" fill="#F9B943"/>
</svg>
