<svg width="48" height="48" viewBox="0 0 48 48" fill="none" xmlns="http://www.w3.org/2000/svg">
<circle cx="24" cy="24" r="24" fill="#00CF50"/>
<g clip-path="url(#clip0_240_157)">
<path fill-rule="evenodd" clip-rule="evenodd" d="M32.5032 15.4878C30.2471 13.2398 27.2467 12.0013 24.0502 12C17.4635 12 12.1029 17.3348 12.1002 23.8917C12.0994 25.9878 12.6495 28.0339 13.6953 29.8374L12 36L18.3349 34.3462C20.0804 35.2938 22.0455 35.7932 24.0453 35.7938H24.0503C30.6363 35.7938 35.9975 30.4585 36 23.9013C36.0013 20.7234 34.7595 17.7356 32.5032 15.4878ZM24.0502 33.7853H24.0461C22.2639 33.7846 20.516 33.3079 18.9909 32.4075L18.6283 32.1932L14.8691 33.1746L15.8725 29.527L15.6363 29.153C14.642 27.5792 14.117 25.7602 14.1179 23.8925C14.12 18.4425 18.5757 14.0086 24.0542 14.0086C26.7071 14.0095 29.2009 15.039 31.0761 16.9074C32.9513 18.7758 33.9834 21.2593 33.9825 23.9005C33.9801 29.3509 29.5247 33.7853 24.0502 33.7853ZM29.4982 26.3821C29.1997 26.2333 27.7317 25.5146 27.4579 25.4153C27.1844 25.3162 26.9851 25.2668 26.7863 25.5642C26.5871 25.8615 26.015 26.531 25.8407 26.7292C25.6665 26.9275 25.4925 26.9524 25.1938 26.8036C24.8952 26.6549 23.9332 26.341 22.7926 25.3286C21.9051 24.5407 21.3059 23.5676 21.1316 23.2702C20.9576 22.9726 21.1301 22.8272 21.2626 22.6638C21.5858 22.2643 21.9095 21.8455 22.009 21.6473C22.1086 21.449 22.0587 21.2754 21.984 21.1267C21.9095 20.978 21.3123 19.5154 21.0636 18.9202C20.821 18.341 20.5751 18.4192 20.3917 18.4102C20.2177 18.4015 20.0185 18.3998 19.8194 18.3998C19.6204 18.3998 19.2969 18.474 19.0231 18.7717C18.7495 19.0692 17.9782 19.788 17.9782 21.2506C17.9782 22.7133 19.0481 24.1263 19.1974 24.3246C19.3466 24.523 21.3029 27.5244 24.2981 28.8114C25.0105 29.1179 25.5665 29.3005 26.0003 29.4375C26.7156 29.6637 27.3664 29.6317 27.8809 29.5553C28.4547 29.4699 29.6473 28.8363 29.8964 28.1423C30.1451 27.4481 30.1451 26.8532 30.0704 26.7292C29.9959 26.6052 29.7967 26.531 29.4982 26.3821Z" fill="white"/>
</g>
<defs>
<clipPath id="clip0_240_157">
<rect width="24" height="24" fill="white" transform="translate(12 12)"/>
</clipPath>
</defs>
</svg>
